PathFileType	4	(X/Y/Z)	OpenSim_Sub10_EMGBaseline_Accel.trc
DataRate	CameraRate	NumFrames	NumMarkers	Units	OrigDataRate	OrigDataStartFrame	OrigNumFrames
100	100	17	8	m	100	5126	8201
Frame#	Time	torso_imu_offset_imu	pelvis_imu_offset_imu	tibia_r_imu_offset_imu	femur_r_imu_offset_imu	tibia_l_imu_offset_imu	femur_l_imu_offset_imu	toes_r_imu_offset_imu	toes_l_imu_offset_imu
				X1	Y1	Z1	X2	Y2	Z2	X3	Y3	Z3	X4	Y4	Z4	X5	Y5	Z5	X6	Y6	Z6	X7	Y7	Z7	X8		Y8	Z8	

5126	51.25000000	8.04543300	-0.73495500	5.56526500	8.49241900	1.58086500	4.90819500	11.23644600	-0.74292600	-1.41579600	9.39176400	-0.32458800	-0.88332900	10.02899200	-6.48169800	-0.75265500	10.34322100	-0.94234900	-0.45785900	5.03225500	-0.68330600	8.68594700	14.46520900	7.56468300	13.07162100
5127	51.26000000	7.68355600	-0.94537800	5.39368200	8.06077100	1.47527000	4.72170300	10.64907400	-1.85257000	-1.47874500	8.97378200	-1.12777300	-1.05721000	9.17002800	-8.74843400	-0.81765500	10.78361200	-0.81091500	-0.48529900	4.96540400	-1.07464400	8.53542900	9.62738900	0.37481800	12.13115200
5128	51.27000000	7.55406700	-1.17272900	5.34234900	7.81476500	1.43047500	4.52652800	10.08664000	-2.57635500	-1.56737900	8.69231500	-1.70762400	-1.08079800	8.82503100	-11.10989000	-2.50530000	11.19125000	-0.49184700	-0.28023700	5.00097800	-1.03649400	8.54984500	9.41774400	-8.36492000	20.66408900
5129	51.28000000	7.45361800	-1.30332200	5.39959400	7.70492300	1.43345000	4.38987300	9.64296300	-2.84665800	-1.22876800	8.51826200	-2.25234600	-1.03415300	7.92291100	-12.74155100	-4.38153900	11.69008000	0.40184100	0.28195900	4.96805800	-0.76459800	8.68208700	13.14246600	-2.18125600	21.90024300
5130	51.29000000	7.58451100	-1.33576200	5.47245200	7.81185100	1.43399900	4.29132600	9.30909800	-2.55082300	-0.61119500	8.27012600	-2.47024100	-0.87541000	5.68794800	-12.00037000	-4.36697300	12.04250100	1.18350700	0.43645800	5.30150200	-0.55515500	8.43010300	-0.57715300	5.59547200	16.42838600
5131	51.30000000	7.90055000	-1.16861100	5.54342900	7.99322900	1.50569900	4.19196800	9.14737300	-1.80918500	-0.70101600	8.09396100	-2.37529800	-0.67213500	3.79244500	-9.39091100	-1.89406200	11.71145900	2.01531800	0.49326500	4.96218100	-0.61187700	8.67472400	-0.50391800	7.16473800	14.59431900
5132	51.31000000	8.10721500	-0.70063300	5.83236100	8.11545600	1.69010300	4.05052300	9.12811600	-0.68590800	-1.05854000	8.22250100	-2.08679900	-0.51559500	2.64784300	-7.19809100	0.33125200	10.91552200	2.62445300	0.47126700	4.65581000	-0.74423500	8.62440400	-0.28869100	4.49283700	13.05722000
5133	51.32000000	8.52421200	-0.37797000	5.79306300	8.25729600	1.84914200	3.82751600	9.44910700	0.63283500	-0.98656100	8.50288500	-1.71361300	-0.57710400	2.45642200	-6.51257600	1.69946300	9.95191700	2.69229200	0.38982400	4.73330600	-0.91072500	8.64628400	0.77050900	2.89463200	13.04994400
5134	51.33000000	8.93068900	-0.19989400	5.62439500	8.28230000	1.91695100	3.74715600	9.91466800	1.79348300	-0.70789500	8.68140900	-1.27855400	-0.76539700	2.52321500	-7.11055000	2.55771500	9.16006000	2.74342400	0.24697000	4.82819000	-1.01915000	8.47464600	0.41304800	3.59599900	12.74428500
5135	51.34000000	8.70313700	-0.10414700	5.55914900	8.17116300	1.93892300	3.60708800	10.26693400	2.81754200	-0.27965000	8.73350100	-0.93704000	-0.99659200	2.20836600	-7.75767900	2.79947100	8.64449800	2.93987900	0.09098400	4.96878800	-0.85348900	8.49728200	-0.28897500	4.72127100	12.43329500
5136	51.35000000	8.20421400	0.01217800	5.67829600	8.03925200	1.97794800	3.47015700	10.23555400	3.61236200	0.22541700	8.55662800	-0.58264300	-0.93368500	1.73659600	-7.68768700	2.60709400	8.42483500	3.23751200	0.08649200	4.98995700	-0.77172500	8.54855300	-0.82682000	4.22050300	11.81950500
5137	51.36000000	7.90132200	-0.00562700	5.73353200	7.98169700	1.98470100	3.36517700	9.69109600	3.77826000	0.34876900	8.47170500	-0.26974300	-0.67666400	1.41860800	-6.94136300	2.60289800	8.37017400	3.47081600	0.10865000	4.92764400	-0.60854700	8.66354700	-0.82316100	2.16866900	11.30739800
5138	51.37000000	7.89548200	-0.09246300	5.62519800	7.95380900	1.94383700	3.25697900	9.10118400	3.31934100	0.48316600	8.55421800	-0.11083200	-0.40096700	1.52338800	-5.65990000	2.54884800	8.49464300	3.66617400	0.18872000	4.75733500	-0.64142600	8.69926100	0.06944900	0.07910200	11.28611100
5139	51.38000000	8.15080600	-0.24121700	5.59263200	7.92869400	1.88299500	3.20233200	9.00695200	2.20860400	0.54856900	8.77364000	-0.04178700	-0.19159900	1.88064200	-4.47025100	2.43081600	8.50595200	3.71094500	0.27182800	5.02491700	-0.68156300	8.51965300	1.17248300	-0.70011700	11.58445000
5140	51.39000000	8.69190800	-0.30589200	5.58231100	8.00764900	1.66395600	3.11165000	9.38671900	0.76951900	0.26726700	9.01302700	-0.05650400	-0.31988300	2.23779100	-4.03432200	2.46693500	8.44592200	3.92953900	0.30896900	4.69359000	-0.88131200	8.60363100	1.87972300	-0.67925900	11.97862900
5141	51.40000000	8.77643300	-0.24337700	5.71596200	8.15726700	1.49505000	3.04763500	9.87587900	-0.45480600	-0.21697000	9.19768500	-0.14469300	-0.58955400	2.31886300	-4.04781200	2.76209400	8.39349900	3.93104400	0.27654100	4.78196700	-0.83267400	8.64264900	1.94878200	-1.18820300	11.84429400
5142	51.41000000	8.55194700	-0.17402600	5.74290100	8.37650100	1.37775300	3.01034100	10.10926700	-0.96214600	-0.60176600	9.26321700	-0.35296800	-0.66927000	2.09244600	-3.90314500	3.10001500	8.33085400	3.90100100	0.13975600	4.83971800	-0.52537400	8.77117500	1.89820500	-1.96748900	11.51419500
